<?xml version="1.0" encoding="UTF-8"?>
<!--
  ╔══════════════════════════════════════════════════════════════════╗
  ║  NetPad Logo - Animation-Ready SVG                               ║
  ║  Version: 1.0                                                    ║
  ╠══════════════════════════════════════════════════════════════════╣
  ║                                                                  ║
  ║  LAYER STRUCTURE (bottom to top):                                ║
  ║  ├── robot-shield    : Main robot body + shield outline          ║
  ║  └── pencil (group)  : Pencil assembly                           ║
  ║      ├── pencil-tip      : Wood/graphite tip                     ║
  ║      ├── pencil-body     : Yellow shaft                          ║
  ║      ├── pencil-ferrule  : Gray metal band                       ║
  ║      └── pencil-eraser   : Red eraser                            ║
  ║                                                                  ║
  ║  ANIMATION SUGGESTIONS:                                          ║
  ║  • Robot entrance: Scale/fade in robot-shield                    ║
  ║  • Pencil write: Rotate/translate pencil group                   ║
  ║  • Pencil draw: Animate along path with pencil-tip leading       ║
  ║  • Pulse: Scale transform on entire SVG                          ║
  ║  • Glow: Add animated filter to robot-shield                     ║
  ║                                                                  ║
  ╚══════════════════════════════════════════════════════════════════╝
-->
<svg xmlns="http://www.w3.org/2000/svg" 
     viewBox="0 0 1024 1024" 
     width="1024" 
     height="1024"
     id="netpad-logo">
  
  <defs>
    <!-- Colors defined for easy theming -->
    <style>
      #robot-shield-path { fill: #1a1a1a; }
      #pencil-tip-path { fill: #c9b896; }
      #pencil-body-path { fill: #f5c542; }
      #pencil-ferrule-path { fill: #808080; }
      #pencil-eraser-path { fill: #e74c3c; }
    </style>
  </defs>
  
  <!-- ═══════════════════════════════════════════════════════════════
       LAYER: Robot + Shield
       Contains: Shield outline, robot body, face cutout, eyes, hand
       Transform origin: center of canvas (512, 512)
       ═══════════════════════════════════════════════════════════════ -->
  <g id="robot-shield" transform="translate(0,1024) scale(0.1,-0.1)">
    <path id="robot-shield-path" d="M4967 10005 c-27 -7 -81 -29 -120 -48 -65 -32 -123 -59 -317 -149
-195 -90 -328 -153 -495 -233 -60 -29 -150 -72 -200 -95 -49 -23 -130 -61
-180 -85 -49 -24 -128 -61 -175 -83 -47 -22 -128 -60 -180 -85 -52 -24 -126
-59 -165 -77 -38 -18 -111 -52 -161 -76 -50 -24 -96 -44 -102 -44 -7 0 -12 -4
-12 -10 0 -5 -5 -10 -10 -10 -10 0 -79 -32 -315 -145 -49 -24 -139 -67 -200
-95 -60 -29 -164 -78 -230 -110 -141 -68 -259 -123 -370 -174 -117 -54 -235
-116 -264 -140 -118 -98 -192 -196 -244 -323 l-32 -78 0 -1870 c0 -1375 3
-1894 12 -1960 23 -180 63 -411 82 -475 11 -36 31 -105 45 -155 30 -104 30
-103 41 -130 5 -11 17 -42 27 -70 67 -181 193 -411 334 -610 209 -297 485
-570 894 -887 52 -40 111 -85 130 -98 19 -13 40 -28 45 -33 18 -14 269 -190
355 -250 117 -79 250 -165 635 -412 28 -18 61 -38 74 -45 14 -7 30 -17 35 -22
6 -5 52 -34 102 -66 51 -31 127 -79 170 -107 43 -27 90 -57 105 -66 15 -9 58
-35 96 -59 37 -24 84 -53 103 -65 19 -12 68 -43 107 -68 40 -26 75 -47 77 -47
4 0 133 -81 176 -110 54 -37 132 -83 170 -100 25 -12 53 -25 62 -30 22 -12 88
-13 88 -1 0 5 14 11 32 15 18 3 62 25 98 48 225 143 297 188 362 227 85 51
121 73 201 125 32 20 74 46 93 57 19 11 41 24 47 29 7 6 46 31 87 57 73 45
230 143 260 163 8 5 58 37 110 70 461 291 695 447 915 612 199 149 305 230
351 268 23 19 64 52 90 73 106 84 303 269 413 387 348 376 587 792 707 1230
44 163 46 173 95 520 11 77 14 447 14 1975 l0 1880 -33 84 c-71 183 -197 311
-400 407 -53 25 -142 68 -197 94 -55 26 -149 71 -210 100 -60 28 -150 71 -200
95 -49 24 -133 63 -185 88 -52 25 -156 74 -230 109 -156 75 -317 151 -485 228
-67 31 -140 65 -320 150 -44 21 -120 57 -170 80 -49 23 -121 57 -160 75 -38
18 -106 50 -150 70 -44 21 -111 52 -150 70 -435 205 -841 391 -888 406 -70 23
-216 24 -290 4z m254 -391 c30 -9 74 -26 99 -39 25 -13 86 -43 135 -65 50 -23
122 -57 160 -75 148 -70 283 -134 360 -170 124 -58 191 -89 310 -145 61 -29
133 -62 160 -75 28 -13 121 -57 207 -99 87 -42 160 -76 162 -76 5 0 283 -132
611 -290 66 -32 196 -94 288 -139 93 -45 171 -81 173 -81 6 0 263 -124 462
-223 179 -88 234 -135 283 -234 l24 -48 0 -1880 c0 -2068 5 -1884 -60 -2190
-28 -131 -39 -173 -61 -222 -8 -17 -14 -36 -14 -42 0 -23 -99 -258 -146 -346
-66 -124 -186 -300 -285 -420 -157 -189 -481 -494 -687 -647 -31 -24 -59 -45
-62 -48 -10 -10 -304 -227 -395 -292 -86 -61 -319 -214 -534 -351 -19 -12 -60
-39 -90 -59 -31 -20 -78 -51 -106 -68 -27 -17 -77 -49 -110 -70 -33 -22 -87
-55 -120 -75 -33 -20 -87 -54 -120 -75 -61 -39 -109 -69 -222 -137 -34 -21
-138 -84 -230 -140 -229 -138 -239 -143 -298 -143 -54 0 -100 20 -215 95 -65
42 -98 63 -470 293 -187 116 -330 206 -449 283 -31 20 -83 53 -116 74 -52 33
-427 283 -488 325 -32 22 -372 260 -421 294 -142 101 -451 365 -601 512 -123
120 -316 355 -390 473 -5 9 -22 34 -36 56 -109 170 -223 452 -285 705 -73 302
-68 142 -72 2195 -3 2085 -9 1922 73 2028 30 37 67 69 114 96 38 23 72 41 75
41 6 0 128 58 455 216 106 52 195 94 196 94 2 0 82 38 177 84 95 46 211 102
258 124 47 22 139 65 205 97 66 32 163 78 215 102 140 66 221 105 355 168 66
32 147 70 180 85 33 15 116 54 185 87 124 60 172 83 385 183 61 29 146 69 190
90 258 123 305 144 355 161 69 22 160 24 231 3z M4665 8891 c-139 -37 -252
-156 -276 -292 -25 -139 18 -258 130 -361 l66 -60 -3 -151 c-2 -84 -5 -171 -9
-194 l-5 -43 -657 0 -658 0 -124 -25 c-97 -19 -144 -34 -215 -70 -209 -105
-370 -321 -404 -543 -7 -44 -10 -357 -8 -912 4 -847 5 -870 38 -945 5 -11 18
-42 30 -70 39 -93 110 -188 192 -256 34 -28 54 -51 46 -53 -186 -53 -288 -109
-390 -213 -84 -86 -96 -101 -148 -196 -46 -85 -61 -128 -90 -262 -27 -121 -25
-229 5 -372 44 -211 16 -175 634 -794 300 -300 571 -564 601 -586 77 -56 205
-119 268 -132 80 -17 217 -13 292 8 99 28 300 86 450 130 261 76 315 91 327
91 11 0 -31 -76 -103 -187 -19 -28 -34 -54 -34 -57 0 -3 -28 -49 -63 -103
-151 -235 -166 -271 -167 -385 0 -87 18 -151 62 -220 52 -82 81 -107 280 -235
231 -149 234 -150 310 -164 169 -30 355 56 459 212 19 30 61 92 92 139 30 47
72 108 92 135 19 28 43 61 53 75 54 80 153 210 160 210 4 -1 34 -7 67 -15 170
-41 354 12 510 148 95 83 174 206 191 300 5 31 15 44 48 64 159 100 262 243
289 399 11 62 14 68 54 95 109 75 207 210 237 326 21 78 20 204 0 273 -17 59
-59 126 -111 178 l-33 33 39 57 c37 55 116 176 256 392 77 119 183 283 290
445 39 61 101 155 137 210 58 90 147 226 252 386 39 61 42 75 126 584 16 99
33 196 39 215 5 19 22 114 36 210 14 96 30 189 35 205 10 33 70 407 70 437 0
28 -36 58 -70 58 -18 0 -42 -11 -62 -28 -18 -16 -87 -70 -153 -121 -66 -51
-133 -103 -150 -116 -16 -13 -97 -75 -180 -139 -255 -198 -426 -330 -465 -361
-21 -16 -92 -72 -158 -123 -96 -73 -130 -106 -165 -160 -102 -156 -402 -619
-555 -857 -35 -55 -102 -158 -148 -230 -46 -71 -103 -159 -126 -195 -128 -201
-129 -202 -156 -195 -13 3 -64 6 -113 6 -109 0 -220 -34 -308 -93 -76 -51
-180 -160 -246 -256 -28 -41 -57 -84 -65 -95 -8 -12 -48 -69 -88 -126 l-73
-105 -127 -32 c-121 -31 -181 -47 -542 -144 -85 -23 -198 -53 -250 -66 -52
-14 -125 -34 -162 -45 -37 -11 -74 -19 -81 -17 -8 2 -96 91 -197 198 -101 107
-219 232 -262 278 -44 46 -77 86 -75 89 3 2 32 -15 64 -38 32 -24 161 -113
287 -197 l230 -153 40 11 c23 7 97 27 166 46 69 18 184 49 255 69 72 20 195
53 275 74 213 57 252 69 261 78 4 4 62 85 129 178 188 263 274 353 419 436 77
44 214 84 323 94 l77 7 68 105 c37 57 85 132 107 166 21 34 51 81 67 105 l29
42 -1500 0 c-1058 0 -1514 3 -1551 11 -135 29 -254 122 -316 248 l-38 76 0
840 0 840 34 69 c19 37 45 82 59 98 41 49 126 106 193 130 l64 23 1400 3 c964
2 1420 -1 1465 -8 162 -27 293 -139 349 -298 14 -42 17 -141 21 -895 l5 -849
25 41 c41 68 164 259 242 376 l73 110 0 615 0 615 -38 105 c-96 269 -303 452
-577 512 -103 22 -118 23 -666 23 l-561 0 -7 119 c-3 66 -6 155 -6 199 l0 80
63 57 c72 66 110 130 127 215 24 118 -5 224 -87 314 -76 85 -151 122 -252 127
-42 2 -89 0 -106 -5z m3225 -2556 c36 -37 145 -85 194 -85 28 0 28 -1 23 -42
-3 -24 -8 -54 -12 -68 -3 -14 -19 -106 -35 -205 -16 -99 -33 -196 -39 -215 -5
-19 -15 -71 -22 -115 -6 -44 -15 -83 -18 -87 -3 -4 -48 -8 -100 -9 l-94 -2
-50 54 c-162 175 -145 163 -289 204 -54 15 -102 33 -106 39 -13 16 -42 106
-42 130 0 23 4 26 185 164 137 104 276 212 320 247 17 14 35 25 41 25 5 0 25
-16 44 -35z m-627 -655 c18 -16 191 -129 202 -133 10 -4 -13 -42 -130 -222
-67 -104 -191 -295 -276 -430 -21 -33 -48 -73 -59 -90 -11 -16 -45 -68 -75
-115 -30 -47 -60 -93 -67 -103 -7 -9 -67 -100 -133 -202 -66 -101 -123 -185
-127 -185 -8 0 -69 38 -108 68 -14 10 -44 30 -67 43 -24 13 -43 29 -43 35 0
10 48 89 78 129 18 25 105 160 123 191 11 20 24 41 30 47 5 7 33 48 61 92 28
44 84 130 123 190 83 126 183 282 261 405 63 100 58 91 131 203 31 48 58 87
60 87 2 0 9 -5 16 -10z m374 -251 c47 -33 92 -63 99 -66 23 -9 16 -28 -47
-125 -95 -143 -200 -304 -260 -398 -29 -47 -62 -94 -71 -104 -10 -11 -18 -23
-18 -28 0 -4 -25 -45 -55 -91 -73 -108 -67 -99 -132 -202 -32 -50 -66 -101
-76 -115 -9 -14 -45 -68 -80 -120 -34 -52 -65 -97 -68 -100 -4 -3 -15 -20 -26
-37 l-20 -33 -69 45 c-38 24 -81 53 -95 64 -15 12 -35 24 -44 27 -29 12 -37
-2 273 469 80 121 170 258 201 303 31 46 61 91 66 100 23 37 116 178 127 194
7 9 51 76 97 148 47 71 91 130 99 130 7 0 52 -27 99 -61z m-1530 -1317 c103
-66 144 -92 293 -187 41 -26 98 -62 125 -80 28 -18 97 -63 155 -100 264 -170
296 -194 313 -230 21 -44 21 -63 1 -124 -28 -87 -111 -161 -180 -161 -27 0
-87 31 -219 115 -100 63 -113 68 -147 54 -61 -25 -95 -107 -64 -154 9 -13 48
-43 88 -66 40 -23 93 -54 117 -68 24 -14 59 -40 78 -57 28 -27 33 -39 33 -78
0 -80 -34 -136 -117 -193 -12 -8 -42 -15 -66 -15 -37 -1 -59 9 -138 57 -234
145 -214 137 -260 104 -34 -24 -59 -68 -59 -103 0 -44 40 -77 208 -174 51 -29
92 -85 92 -125 0 -42 -46 -120 -91 -157 -63 -50 -116 -70 -191 -70 -85 0 -123
15 -263 104 -60 38 -139 87 -175 109 -88 55 -164 103 -230 145 -30 20 -71 45
-90 57 -231 140 -298 222 -276 339 6 32 157 265 427 661 42 61 111 162 154
225 113 166 154 205 248 236 73 24 119 11 234 -64z m-965 -1674 c70 -46 157
-101 193 -123 36 -22 113 -71 172 -108 58 -38 116 -73 129 -79 13 -6 24 -15
24 -20 0 -5 -19 -33 -41 -63 l-41 -55 -27 18 c-29 20 -93 62 -216 140 -44 29
-87 56 -95 62 -8 5 -76 49 -150 96 -74 47 -139 90 -143 94 -5 4 -3 18 3 31 18
36 54 89 60 89 3 0 63 -37 132 -82z m-277 -198 c3 -5 50 -40 103 -77 53 -37
102 -71 107 -76 16 -12 112 -80 230 -161 152 -105 148 -101 140 -125 -3 -12
-43 -72 -87 -134 -44 -61 -83 -117 -85 -124 -3 -6 -29 -28 -58 -49 -50 -34
-58 -36 -113 -32 -32 2 -65 10 -73 16 -12 11 -68 49 -274 185 -56 37 -112 97
-126 134 -23 62 -1 119 121 313 29 47 60 97 69 112 16 29 35 36 46 18z M3753
6806 c-224 -51 -380 -271 -360 -508 10 -121 76 -251 169 -332 218 -191 551
-139 712 112 77 120 95 297 43 429 -53 134 -159 240 -284 284 -76 26 -200 33
-280 15z M5423 6805 c-212 -48 -363 -244 -363 -470 0 -298 253 -519 544 -477
110 16 176 51 262 136 76 77 104 125 130 226 21 81 14 209 -16 295 -39 115
-160 235 -278 276 -75 26 -200 33 -279 14z"/>
  </g>
  
  <!-- ═══════════════════════════════════════════════════════════════
       GROUP: Pencil Assembly
       Contains all pencil components as a group for unified animation
       Pivot point suggestion: Base of pencil (eraser end)
       ═══════════════════════════════════════════════════════════════ -->
  <g id="pencil">
    
    <!-- Pencil Tip - Wood/graphite point -->
    <g id="pencil-tip" transform="translate(0,1024) scale(0.1,-0.1)">
      <path id="pencil-tip-path" d="M5053 6345 c0 -33 2 -45 4 -27 2 18 2 45 0 60 -2 15 -4 0 -4 -33z
M7805 6339 c-67 -50 -67 -50 32 -48 l91 2 -41 38 c-22 22 -41 39 -41 39 -1 0
-19 -14 -41 -31z M5170 2340 c-98 -5 -103 -6 -80 -20 20 -12 47 -14 130 -10
75 4 99 8 85 14 -11 5 -22 12 -25 15 -3 3 -52 4 -110 1z"/>
    </g>
    
    <!-- Pencil Body - Yellow shaft with stripes -->
    <g id="pencil-body" transform="translate(0,1024) scale(0.1,-0.1)">
      <path id="pencil-body-path" d="M7830 6292 c-79 -3 -88 -5 -125 -35 -22 -18 -79 -61 -126 -97 -136
-103 -253 -193 -265 -204 -8 -8 -5 -30 13 -81 l23 -71 64 -17 c53 -14 112 -17
335 -17 l270 0 7 38 c3 20 12 69 20 107 29 145 54 291 54 313 0 19 -5 22 -37
22 -21 0 -63 10 -93 23 -45 18 -71 21 -140 19z M7219 5643 c-13 -21 -55 -87
-94 -148 -39 -60 -87 -134 -106 -164 -19 -30 -170 -264 -337 -520 l-302 -465
102 -68 c57 -37 108 -67 113 -67 6 0 37 42 70 92 33 51 138 211 233 357 162
248 235 361 337 520 23 36 83 129 133 207 51 78 92 144 92 147 0 5 -206 146
-213 146 -3 0 -16 -17 -28 -37z M7487 5423 c-24 -38 -120 -183 -212 -323 -93
-140 -215 -327 -273 -415 -58 -88 -122 -185 -142 -215 -80 -117 -190 -294
-190 -305 0 -11 31 -33 157 -111 l52 -32 38 51 c42 56 227 337 385 582 25 39
79 122 120 185 65 100 277 427 315 486 13 20 8 24 -84 86 -54 35 -103 68 -110
71 -7 5 -28 -19 -56 -60z"/>
    </g>
    
    <!-- Pencil Ferrule - Gray metal band -->
    <g id="pencil-ferrule" transform="translate(0,1024) scale(0.1,-0.1)">
      <path id="pencil-ferrule-path" d="M4923 8095 c0 -33 2 -45 4 -27 2 18 2 45 0 60 -2 15 -4 0 -4 -33z
M3683 7433 c32 -2 81 -2 110 0 29 2 3 3 -58 3 -60 0 -84 -1 -52 -3z M4258
7433 c23 -2 59 -2 80 0 20 2 1 4 -43 4 -44 0 -61 -2 -37 -4z M4582 7433 c48
-2 129 -2 180 0 51 1 12 3 -87 3 -99 0 -141 -2 -93 -3z M2495 6290 c0 -448 1
-632 2 -407 2 224 2 590 0 815 -1 224 -2 40 -2 -408z M2845 6280 c0 -437 1
-616 2 -397 2 218 2 576 0 795 -1 218 -2 39 -2 -398z M5053 6340 c0 -47 2 -66
4 -42 2 23 2 61 0 85 -2 23 -4 4 -4 -43z M3997 5103 c414 -2 1092 -2 1505 0
414 1 76 2 -752 2 -828 0 -1166 -1 -753 -2z M2810 3075 c289 -289 527 -525
530 -525 3 0 -231 236 -520 525 -289 289 -527 525 -530 525 -3 0 231 -236 520
-525z M6361 3288 c-1 -18 9 -38 27 -56 15 -15 19 -18 8 -6 -10 13 -22 38 -26
56 -7 31 -8 31 -9 6z M4949 2428 c-10 -18 -9 -24 5 -33 10 -5 65 -41 124 -79
59 -38 143 -91 187 -119 44 -27 98 -62 120 -77 65 -43 72 -47 56 -27 -12 16
-5 17 99 17 l112 0 -16 -22 c-23 -33 -37 -58 -33 -58 7 0 60 80 56 84 -2 2
-15 9 -29 16 -23 12 -310 190 -429 267 -29 19 -51 31 -48 26 3 -4 -40 -7 -95
-5 -81 3 -99 6 -94 18 8 22 -2 17 -15 -8z M3778 2343 c29 -2 74 -2 100 0 26 2
2 3 -53 3 -55 0 -76 -1 -47 -3z M6047 1973 c18 -2 50 -2 70 0 21 2 7 4 -32 4
-38 0 -55 -2 -38 -4z M4383 1855 c0 -44 2 -61 4 -37 2 23 2 59 0 80 -2 20 -4
1 -4 -43z"/>
    </g>
    
    <!-- Pencil Eraser - Red rubber -->
    <g id="pencil-eraser" transform="translate(0,1024) scale(0.1,-0.1)">
      <path id="pencil-eraser-path" d="M4655 1923 c-28 -42 -31 -103 -7 -150 23 -44 61 -74 260 -208 123
-82 139 -89 191 -93 73 -5 128 21 171 81 94 129 173 242 176 252 5 11 4 12
-115 90 l-85 55 -287 0 -287 0 -17 -27z"/>
    </g>
    
  </g>
  
</svg>