<?xml version="1.0" encoding="UTF-8"?>
<svg id="netpad-logo" xmlns="http://www.w3.org/2000/svg" viewBox="0 0 784 981.87">
  <defs>
    <style>
      .cls-1 {
        fill: gray;
      }

      .cls-2 {
        fill: #1a1a1a;
      }
    </style>
  </defs>
  <g id="robot-shield">
    <path id="robot-shield-path" class="cls-2" d="M377.2,1.42c-2.7.7-8.1,2.9-12,4.8-6.5,3.2-12.3,5.9-31.7,14.9-19.5,9-32.8,15.3-49.5,23.3-6,2.9-15,7.2-20,9.5-4.9,2.3-13,6.1-18,8.5-4.9,2.4-12.8,6.1-17.5,8.3s-12.8,6-18,8.5c-5.2,2.4-12.6,5.9-16.5,7.7-3.8,1.8-11.1,5.2-16.1,7.6s-9.6,4.4-10.2,4.4c-.7,0-1.2.4-1.2,1,0,.5-.5,1-1,1-1,0-7.9,3.2-31.5,14.5-4.9,2.4-13.9,6.7-20,9.5-6,2.9-16.4,7.8-23,11-14.1,6.8-25.9,12.3-37,17.4-11.7,5.4-23.5,11.6-26.4,14-11.8,9.8-19.2,19.6-24.4,32.3l-3.2,7.8v187c0,137.5.3,189.4,1.2,196,2.3,18,6.3,41.1,8.2,47.5,1.1,3.6,3.1,10.5,4.5,15.5,3,10.4,3,10.3,4.1,13,.5,1.1,1.7,4.2,2.7,7,6.7,18.1,19.3,41.1,33.4,61,20.9,29.7,48.5,57,89.4,88.7,5.2,4,11.1,8.5,13,9.8s4,2.8,4.5,3.3c1.8,1.4,26.9,19,35.5,25,11.7,7.9,25,16.5,63.5,41.2,2.8,1.8,6.1,3.8,7.4,4.5,1.4.7,3,1.7,3.5,2.2.6.5,5.2,3.4,10.2,6.6,5.1,3.1,12.7,7.9,17,10.7,4.3,2.7,9,5.7,10.5,6.6s5.8,3.5,9.6,5.9c3.7,2.4,8.4,5.3,10.3,6.5s6.8,4.3,10.7,6.8c4,2.6,7.5,4.7,7.7,4.7.4,0,13.3,8.1,17.6,11,5.4,3.7,13.2,8.3,17,10,2.5,1.2,5.3,2.5,6.2,3,2.2,1.2,8.8,1.3,8.8.1,0-.5,1.4-1.1,3.2-1.5,1.8-.3,6.2-2.5,9.8-4.8,22.5-14.3,29.7-18.8,36.2-22.7,8.5-5.1,12.1-7.3,20.1-12.5,3.2-2,7.4-4.6,9.3-5.7s4.1-2.4,4.7-2.9c.7-.6,4.6-3.1,8.7-5.7,7.3-4.5,23-14.3,26-16.3.8-.5,5.8-3.7,11-7,46.1-29.1,69.5-44.7,91.5-61.2,19.9-14.9,30.5-23,35.1-26.8,2.3-1.9,6.4-5.2,9-7.3,10.6-8.4,30.3-26.9,41.3-38.7,34.8-37.6,58.7-79.2,70.7-123,4.4-16.3,4.6-17.3,9.5-52,1.1-7.7,1.4-44.7,1.4-197.5v-188l-3.3-8.4c-7.1-18.3-19.7-31.1-40-40.7-5.3-2.5-14.2-6.8-19.7-9.4s-14.9-7.1-21-10c-6-2.8-15-7.1-20-9.5-4.9-2.4-13.3-6.3-18.5-8.8s-15.6-7.4-23-10.9c-15.6-7.5-31.7-15.1-48.5-22.8-6.7-3.1-14-6.5-32-15-4.4-2.1-12-5.7-17-8-4.9-2.3-12.1-5.7-16-7.5-3.8-1.8-10.6-5-15-7-4.4-2.1-11.1-5.2-15-7C451.5,21.92,410.9,3.32,406.2,1.82c-7-2.3-21.6-2.4-29-.4ZM402.6,40.52c3,.9,7.4,2.6,9.9,3.9s8.6,4.3,13.5,6.5c5,2.3,12.2,5.7,16,7.5,14.8,7,28.3,13.4,36,17,12.4,5.8,19.1,8.9,31,14.5,6.1,2.9,13.3,6.2,16,7.5,2.8,1.3,12.1,5.7,20.7,9.9,8.7,4.2,16,7.6,16.2,7.6.5,0,28.3,13.2,61.1,29,6.6,3.2,19.6,9.4,28.8,13.9,9.3,4.5,17.1,8.1,17.3,8.1.6,0,26.3,12.4,46.2,22.3,17.9,8.8,23.4,13.5,28.3,23.4l2.4,4.8v188c0,206.8.5,188.4-6,219-2.8,13.1-3.9,17.3-6.1,22.2-.8,1.7-1.4,3.6-1.4,4.2,0,2.3-9.9,25.8-14.6,34.6-6.6,12.4-18.6,30-28.5,42-15.7,18.9-48.1,49.4-68.7,64.7-3.1,2.4-5.9,4.5-6.2,4.8-1,1-30.4,22.7-39.5,29.2-8.6,6.1-31.9,21.4-53.4,35.1-1.9,1.2-6,3.9-9,5.9-3.1,2-7.8,5.1-10.6,6.8-2.7,1.7-7.7,4.9-11,7-3.3,2.2-8.7,5.5-12,7.5s-8.7,5.4-12,7.5c-6.1,3.9-10.9,6.9-22.2,13.7-3.4,2.1-13.8,8.4-23,14-22.9,13.8-23.9,14.3-29.8,14.3-5.4,0-10-2-21.5-9.5-6.5-4.2-9.8-6.3-47-29.3-18.7-11.6-33-20.6-44.9-28.3-3.1-2-8.3-5.3-11.6-7.4-5.2-3.3-42.7-28.3-48.8-32.5-3.2-2.2-37.2-26-42.1-29.4-14.2-10.1-45.1-36.5-60.1-51.2-12.3-12-31.6-35.5-39-47.3-.5-.9-2.2-3.4-3.6-5.6-10.9-17-22.3-45.2-28.5-70.5-7.3-30.2-6.8-14.2-7.2-219.5-.3-208.5-.9-192.2,7.3-202.8,3-3.7,6.7-6.9,11.4-9.6,3.8-2.3,7.2-4.1,7.5-4.1.6,0,12.8-5.8,45.5-21.6,10.6-5.2,19.5-9.4,19.6-9.4.2,0,8.2-3.8,17.7-8.4s21.1-10.2,25.8-12.4,13.9-6.5,20.5-9.7,16.3-7.8,21.5-10.2c14-6.6,22.1-10.5,35.5-16.8,6.6-3.2,14.7-7,18-8.5s11.6-5.4,18.5-8.7c12.4-6,17.2-8.3,38.5-18.3,6.1-2.9,14.6-6.9,19-9,25.8-12.3,30.5-14.4,35.5-16.1,6.9-2.2,16-2.4,23.1-.3ZM347,112.82c-13.9,3.7-25.2,15.6-27.6,29.2-2.5,13.9,1.8,25.8,13,36.1l6.6,6-.3,15.1c-.2,8.4-.5,17.1-.9,19.4l-.5,4.3h-131.5l-12.4,2.5c-9.7,1.9-14.4,3.4-21.5,7-20.9,10.5-37,32.1-40.4,54.3-.7,4.4-1,35.7-.8,91.2.4,84.7.5,87,3.8,94.5.5,1.1,1.8,4.2,3,7,3.9,9.3,11,18.8,19.2,25.6,3.4,2.8,5.4,5.1,4.6,5.3-18.6,5.3-28.8,10.9-39,21.3-8.4,8.6-9.6,10.1-14.8,19.6-4.6,8.5-6.1,12.8-9,26.2-2.7,12.1-2.5,22.9.5,37.2,4.4,21.1,1.6,17.5,63.4,79.4,30,30,57.1,56.4,60.1,58.6,7.7,5.6,20.5,11.9,26.8,13.2,8,1.7,21.7,1.3,29.2-.8,9.9-2.8,30-8.6,45-13,26.1-7.6,31.5-9.1,32.7-9.1,1.1,0-3.1,7.6-10.3,18.7-1.9,2.8-3.4,5.4-3.4,5.7s-2.8,4.9-6.3,10.3c-15.1,23.5-16.6,27.1-16.7,38.5,0,8.7,1.8,15.1,6.2,22,5.2,8.2,8.1,10.7,28,23.5,23.1,14.9,23.4,15,31,16.4,16.9,3,35.5-5.6,45.9-21.2,1.9-3,6.1-9.2,9.2-13.9,3-4.7,7.2-10.8,9.2-13.5,1.9-2.8,4.3-6.1,5.3-7.5,5.4-8,15.3-21,16-21,.4.1,3.4.7,6.7,1.5,17,4.1,35.4-1.2,51-14.8,9.5-8.3,17.4-20.6,19.1-30,.5-3.1,1.5-4.4,4.8-6.4,15.9-10,26.2-24.3,28.9-39.9,1.1-6.2,1.4-6.8,5.4-9.5,10.9-7.5,20.7-21,23.7-32.6,2.1-7.8,2-20.4,0-27.3-1.7-5.9-5.9-12.6-11.1-17.8l-3.3-3.3,3.9-5.7c3.7-5.5,11.6-17.6,25.6-39.2,7.7-11.9,18.3-28.3,29-44.5,3.9-6.1,10.1-15.5,13.7-21,5.8-9,14.7-22.6,25.2-38.6,3.9-6.1,4.2-7.5,12.6-58.4,1.6-9.9,3.3-19.6,3.9-21.5.5-1.9,2.2-11.4,3.6-21s3-18.9,3.5-20.5c1-3.3,7-40.7,7-43.7,0-2.8-3.6-5.8-7-5.8-1.8,0-4.2,1.1-6.2,2.8-1.8,1.6-8.7,7-15.3,12.1s-13.3,10.3-15,11.6c-1.6,1.3-9.7,7.5-18,13.9-25.5,19.8-42.6,33-46.5,36.1-2.1,1.6-9.2,7.2-15.8,12.3-9.6,7.3-13,10.6-16.5,16-10.2,15.6-40.2,61.9-55.5,85.7-3.5,5.5-10.2,15.8-14.8,23-4.6,7.1-10.3,15.9-12.6,19.5-12.8,20.1-12.9,20.2-15.6,19.5-1.3-.3-6.4-.6-11.3-.6-10.9,0-22,3.4-30.8,9.3-7.6,5.1-18,16-24.6,25.6-2.8,4.1-5.7,8.4-6.5,9.5-.8,1.2-4.8,6.9-8.8,12.6l-7.3,10.5-12.7,3.2c-12.1,3.1-18.1,4.7-54.2,14.4-8.5,2.3-19.8,5.3-25,6.6-5.2,1.4-12.5,3.4-16.2,4.5s-7.4,1.9-8.1,1.7c-.8-.2-9.6-9.1-19.7-19.8s-21.9-23.2-26.2-27.8c-4.4-4.6-7.7-8.6-7.5-8.9.3-.2,3.2,1.5,6.4,3.8,3.2,2.4,16.1,11.3,28.7,19.7l23,15.3,4-1.1c2.3-.7,9.7-2.7,16.6-4.6,6.9-1.8,18.4-4.9,25.5-6.9,7.2-2,19.5-5.3,27.5-7.4,21.3-5.7,25.2-6.9,26.1-7.8.4-.4,6.2-8.5,12.9-17.8,18.8-26.3,27.4-35.3,41.9-43.6,7.7-4.4,21.4-8.4,32.3-9.4l7.7-.7,6.8-10.5c3.7-5.7,8.5-13.2,10.7-16.6,2.1-3.4,5.1-8.1,6.7-10.5l2.9-4.2h-150c-105.8,0-151.4-.3-155.1-1.1-13.5-2.9-25.4-12.2-31.6-24.8l-3.8-7.6v-168l3.4-6.9c1.9-3.7,4.5-8.2,5.9-9.8,4.1-4.9,12.6-10.6,19.3-13l6.4-2.3,140-.3c96.4-.2,142,.1,146.5.8,16.2,2.7,29.3,13.9,34.9,29.8,1.4,4.2,1.7,14.1,2.1,89.5l.5,84.9,2.5-4.1c4.1-6.8,16.4-25.9,24.2-37.6l7.3-11v-123l-3.8-10.5c-9.6-26.9-30.3-45.2-57.7-51.2-10.3-2.2-11.8-2.3-66.6-2.3h-56.1l-.7-11.9c-.3-6.6-.6-15.5-.6-19.9v-8l6.3-5.7c7.2-6.6,11-13,12.7-21.5,2.4-11.8-.5-22.4-8.7-31.4-7.6-8.5-15.1-12.2-25.2-12.7-4.2-.2-8.9,0-10.6.5ZM669.5,368.42c3.6,3.7,14.5,8.5,19.4,8.5,2.8,0,2.8.1,2.3,4.2-.3,2.4-.8,5.4-1.2,6.8-.3,1.4-1.9,10.6-3.5,20.5s-3.3,19.6-3.9,21.5c-.5,1.9-1.5,7.1-2.2,11.5-.6,4.4-1.5,8.3-1.8,8.7s-4.8.8-10,.9l-9.4.2-5-5.4c-16.2-17.5-14.5-16.3-28.9-20.4-5.4-1.5-10.2-3.3-10.6-3.9-1.3-1.6-4.2-10.6-4.2-13s.4-2.6,18.5-16.4c13.7-10.4,27.6-21.2,32-24.7,1.7-1.4,3.5-2.5,4.1-2.5.5,0,2.5,1.6,4.4,3.5ZM606.8,433.92c1.8,1.6,19.1,12.9,20.2,13.3,1,.4-1.3,4.2-13,22.2-6.7,10.4-19.1,29.5-27.6,43-2.1,3.3-4.8,7.3-5.9,9-1.1,1.6-4.5,6.8-7.5,11.5s-6,9.3-6.7,10.3c-.7.9-6.7,10-13.3,20.2-6.6,10.1-12.3,18.5-12.7,18.5-.8,0-6.9-3.8-10.8-6.8-1.4-1-4.4-3-6.7-4.3-2.4-1.3-4.3-2.9-4.3-3.5,0-1,4.8-8.9,7.8-12.9,1.8-2.5,10.5-16,12.3-19.1,1.1-2,2.4-4.1,3-4.7.5-.7,3.3-4.8,6.1-9.2s8.4-13,12.3-19c8.3-12.6,18.3-28.2,26.1-40.5,6.3-10,5.8-9.1,13.1-20.3,3.1-4.8,5.8-8.7,6-8.7s.9.5,1.6,1ZM644.2,459.02c4.7,3.3,9.2,6.3,9.9,6.6,2.3.9,1.6,2.8-4.7,12.5-9.5,14.3-20,30.4-26,39.8-2.9,4.7-6.2,9.4-7.1,10.4-1,1.1-1.8,2.3-1.8,2.8,0,.4-2.5,4.5-5.5,9.1-7.3,10.8-6.7,9.9-13.2,20.2-3.2,5-6.6,10.1-7.6,11.5-.9,1.4-4.5,6.8-8,12-3.4,5.2-6.5,9.7-6.8,10-.4.3-1.5,2-2.6,3.7l-2,3.3-6.9-4.5c-3.8-2.4-8.1-5.3-9.5-6.4-1.5-1.2-3.5-2.4-4.4-2.7-2.9-1.2-3.7.2,27.3-46.9,8-12.1,17-25.8,20.1-30.3,3.1-4.6,6.1-9.1,6.6-10,2.3-3.7,11.6-17.8,12.7-19.4.7-.9,5.1-7.6,9.7-14.8,4.7-7.1,9.1-13,9.9-13,.7,0,5.2,2.7,9.9,6.1ZM491.2,590.72c10.3,6.6,14.4,9.2,29.3,18.7,4.1,2.6,9.8,6.2,12.5,8,2.8,1.8,9.7,6.3,15.5,10,26.4,17,29.6,19.4,31.3,23,2.1,4.4,2.1,6.3.1,12.4-2.8,8.7-11.1,16.1-18,16.1-2.7,0-8.7-3.1-21.9-11.5-10-6.3-11.3-6.8-14.7-5.4-6.1,2.5-9.5,10.7-6.4,15.4.9,1.3,4.8,4.3,8.8,6.6s9.3,5.4,11.7,6.8,5.9,4,7.8,5.7c2.8,2.7,3.3,3.9,3.3,7.8,0,8-3.4,13.6-11.7,19.3-1.2.8-4.2,1.5-6.6,1.5-3.7.1-5.9-.9-13.8-5.7-23.4-14.5-21.4-13.7-26-10.4-3.4,2.4-5.9,6.8-5.9,10.3,0,4.4,4,7.7,20.8,17.4,5.1,2.9,9.2,8.5,9.2,12.5,0,4.2-4.6,12-9.1,15.7-6.3,5-11.6,7-19.1,7-8.5,0-12.3-1.5-26.3-10.4-6-3.8-13.9-8.7-17.5-10.9-8.8-5.5-16.4-10.3-23-14.5-3-2-7.1-4.5-9-5.7-23.1-14-29.8-22.2-27.6-33.9.6-3.2,15.7-26.5,42.7-66.1,4.2-6.1,11.1-16.2,15.4-22.5,11.3-16.6,15.4-20.5,24.8-23.6,7.3-2.4,11.9-1.1,23.4,6.4ZM394.7,758.12c7,4.6,15.7,10.1,19.3,12.3s11.3,7.1,17.2,10.8c5.8,3.8,11.6,7.3,12.9,7.9s2.4,1.5,2.4,2-1.9,3.3-4.1,6.3l-4.1,5.5-2.7-1.8c-2.9-2-9.3-6.2-21.6-14-4.4-2.9-8.7-5.6-9.5-6.2-.8-.5-7.6-4.9-15-9.6s-13.9-9-14.3-9.4c-.5-.4-.3-1.8.3-3.1,1.8-3.6,5.4-8.9,6-8.9.3,0,6.3,3.7,13.2,8.2ZM367,777.92c.3.5,5,4,10.3,7.7s10.2,7.1,10.7,7.6c1.6,1.2,11.2,8,23,16.1,15.2,10.5,14.8,10.1,14,12.5-.3,1.2-4.3,7.2-8.7,13.4-4.4,6.1-8.3,11.7-8.5,12.4-.3.6-2.9,2.8-5.8,4.9-5,3.4-5.8,3.6-11.3,3.2-3.2-.2-6.5-1-7.3-1.6-1.2-1.1-6.8-4.9-27.4-18.5-5.6-3.7-11.2-9.7-12.6-13.4-2.3-6.2-.1-11.9,12.1-31.3,2.9-4.7,6-9.7,6.9-11.2,1.6-2.9,3.5-3.6,4.6-1.8ZM255.8,321.32c-22.4,5.1-38,27.1-36,50.8,1,12.1,7.6,25.1,16.9,33.2,21.8,19.1,55.1,13.9,71.2-11.2,7.7-12,9.5-29.7,4.3-42.9-5.3-13.4-15.9-24-28.4-28.4-7.6-2.6-20-3.3-28-1.5ZM422.8,321.42c-21.2,4.8-36.3,24.4-36.3,47,0,29.8,25.3,51.9,54.4,47.7,11-1.6,17.6-5.1,26.2-13.6,7.6-7.7,10.4-12.5,13-22.6,2.1-8.1,1.4-20.9-1.6-29.5-3.9-11.5-16-23.5-27.8-27.6-7.5-2.6-20-3.3-27.9-1.4Z"/>
  </g>
  <g id="pencil">
    <g id="pencil-ferrule">
      <path id="pencil-ferrule-path" class="cls-1" d="M372.8,192.42c0,3.3.2,4.5.4,2.7s.2-4.5,0-6-.4,0-.4,3.3ZM248.8,258.62c3.2.2,8.1.2,11,0s.3-.3-5.8-.3-8.4.1-5.2.3ZM306.3,258.62c2.3.2,5.9.2,8,0,2-.2.1-.4-4.3-.4s-6.1.2-3.7.4ZM338.7,258.62c4.8.2,12.9.2,18,0,5.1-.1,1.2-.3-8.7-.3s-14.1.2-9.3.3ZM130,372.92c0,44.8.1,63.2.2,40.7.2-22.4.2-59,0-81.5-.1-22.4-.2-4-.2,40.8ZM165,373.92c0,43.7.1,61.6.2,39.7.2-21.8.2-57.6,0-79.5-.1-21.8-.2-3.9-.2,39.8ZM385.8,367.92c0,4.7.2,6.6.4,4.2.2-2.3.2-6.1,0-8.5-.2-2.3-.4-.4-.4,4.3ZM280.2,491.62c41.4.2,109.2.2,150.5,0,41.4-.1,7.6-.2-75.2-.2s-116.6.1-75.3.2ZM161.5,694.42c28.9,28.9,52.7,52.5,53,52.5s-23.1-23.6-52-52.5-52.7-52.5-53-52.5,23.1,23.6,52,52.5ZM516.6,673.12c-.1,1.8.9,3.8,2.7,5.6,1.5,1.5,1.9,1.8.8.6-1-1.3-2.2-3.8-2.6-5.6-.7-3.1-.8-3.1-.9-.6ZM258.3,767.62c2.9.2,7.4.2,10,0s.2-.3-5.3-.3-7.6.1-4.7.3ZM485.2,804.62c1.8.2,5,.2,7,0,2.1-.2.7-.4-3.2-.4s-5.5.2-3.8.4ZM318.8,816.42c0,4.4.2,6.1.4,3.7.2-2.3.2-5.9,0-8-.2-2-.4-.1-.4,4.3Z"/>
    </g>
  </g>
</svg>